<svg width="28" height="32" viewBox="0 0 28 32" fill="none" xmlns="http://www.w3.org/2000/svg">
<path d="M12.3529 0.235352V3.44634C7.1346 4.19447 3.08824 8.65388 3.08824 14.0135V23.3971H0V26.4853H9.26471C9.26471 29.044 11.3385 31.1177 13.8971 31.1177C16.4557 31.1177 18.5294 29.044 18.5294 26.4853H27.7941V23.3971H24.7059V14.0135C24.7059 11.0735 23.4899 8.40142 21.535 6.45892C19.9183 4.8677 17.7975 3.78451 15.4412 3.44634V0.235352H12.3529ZM13.8971 28.0295C13.0455 28.0295 12.3529 27.3369 12.3529 26.4853H15.4412C15.4412 27.3369 14.7486 28.0295 13.8971 28.0295ZM19.3586 8.65002C20.8155 10.0976 21.6176 12.0023 21.6176 14.0135V23.3971H6.17647V14.0135C6.17647 9.82201 9.63993 6.41182 13.8971 6.41182C15.9531 6.41182 17.8963 7.21013 19.3586 8.65002Z" fill="#1B343D"/>
</svg>
