<svg width="16" height="17" viewBox="0 0 16 17" fill="none" xmlns="http://www.w3.org/2000/svg">
<path d="M4.8 9.1C5.24183 9.1 5.6 8.74183 5.6 8.3C5.6 7.85817 5.24183 7.5 4.8 7.5C4.35817 7.5 4 7.85817 4 8.3C4 8.74183 4.35817 9.1 4.8 9.1Z" fill="#42474A"/>
<path d="M8.00036 9.1C8.44219 9.1 8.80036 8.74183 8.80036 8.3C8.80036 7.85817 8.44219 7.5 8.00036 7.5C7.55854 7.5 7.20036 7.85817 7.20036 8.3C7.20036 8.74183 7.55854 9.1 8.00036 9.1Z" fill="#42474A"/>
<path d="M11.2007 9.1C11.6426 9.1 12.0007 8.74183 12.0007 8.3C12.0007 7.85817 11.6426 7.5 11.2007 7.5C10.7589 7.5 10.4007 7.85817 10.4007 8.3C10.4007 8.74183 10.7589 9.1 11.2007 9.1Z" fill="#42474A"/>
<path d="M4.8 12.3C5.24183 12.3 5.6 11.9418 5.6 11.5C5.6 11.0582 5.24183 10.7 4.8 10.7C4.35817 10.7 4 11.0582 4 11.5C4 11.9418 4.35817 12.3 4.8 12.3Z" fill="#42474A"/>
<path d="M8.00036 12.3C8.44219 12.3 8.80036 11.9418 8.80036 11.5C8.80036 11.0582 8.44219 10.7 8.00036 10.7C7.55854 10.7 7.20036 11.0582 7.20036 11.5C7.20036 11.9418 7.55854 12.3 8.00036 12.3Z" fill="#42474A"/>
<path d="M11.2007 12.3C11.6426 12.3 12.0007 11.9418 12.0007 11.5C12.0007 11.0582 11.6426 10.7 11.2007 10.7C10.7589 10.7 10.4007 11.0582 10.4007 11.5C10.4007 11.9418 10.7589 12.3 11.2007 12.3Z" fill="#42474A"/>
<path d="M14.4 1.90001H11.6V0.700012H10.8V1.90001H5.2V0.700012H4.4V1.90001H1.6C0.72 1.90001 0 2.62001 0 3.50001V14.7C0 15.58 0.72 16.3 1.6 16.3H14.4C15.28 16.3 16 15.58 16 14.7V3.50001C16 2.62001 15.28 1.90001 14.4 1.90001ZM15.2 14.7C15.2 15.1412 14.8412 15.5 14.4 15.5H1.6C1.1588 15.5 0.8 15.1412 0.8 14.7V3.50001C0.8 3.05881 1.1588 2.70001 1.6 2.70001H4.4V4.70001H5.2V2.70001H10.8V4.70001H11.6V2.70001H14.4C14.8412 2.70001 15.2 3.05881 15.2 3.50001V14.7Z" fill="#42474A"/>
</svg>
