<svg width="30" height="22" viewBox="0 0 30 22" fill="none" xmlns="http://www.w3.org/2000/svg">
<path d="M1.66406 11.0003L0.554806 10.4241L0.255462 11.0003L0.554806 11.5766L1.66406 11.0003ZM28.3307 11.0003L29.44 11.5766L29.7393 11.0003L29.44 10.4241L28.3307 11.0003ZM1.66406 11.0003C2.77332 11.5766 2.77314 11.5769 2.77297 11.5772C2.77294 11.5773 2.77279 11.5776 2.77273 11.5777C2.77261 11.5779 2.77256 11.578 2.77258 11.578C2.77262 11.5779 2.77296 11.5773 2.77358 11.5761C2.77483 11.5737 2.77724 11.5691 2.7808 11.5625C2.78792 11.5491 2.79965 11.5274 2.81595 11.4977C2.84857 11.4384 2.89941 11.3477 2.96818 11.23C3.10582 10.9945 3.31467 10.6521 3.5922 10.2385C4.14877 9.40901 4.97344 8.3053 6.04435 7.20584C8.20563 4.98691 11.2359 2.91699 14.9974 2.91699V0.416992C10.2741 0.416992 6.63764 3.01374 4.25347 5.46148C3.05165 6.69535 2.1339 7.92498 1.51623 8.84551C1.20664 9.3069 0.970413 9.69367 0.809753 9.96857C0.729376 10.1061 0.667769 10.2159 0.625215 10.2933C0.603933 10.332 0.587403 10.3626 0.57566 10.3846C0.569788 10.3956 0.565111 10.4044 0.561634 10.411C0.559896 10.4143 0.558457 10.4171 0.557319 10.4193C0.55675 10.4204 0.556256 10.4213 0.555837 10.4221C0.555628 10.4225 0.555369 10.423 0.555265 10.4232C0.555026 10.4237 0.554806 10.4241 1.66406 11.0003ZM14.9974 2.91699C18.7589 2.91699 21.7892 4.98691 23.9504 7.20584C25.0214 8.3053 25.846 9.40901 26.4026 10.2385C26.6801 10.6521 26.889 10.9945 27.0266 11.23C27.0954 11.3477 27.1462 11.4384 27.1788 11.4977C27.1951 11.5274 27.2069 11.5491 27.214 11.5625C27.2176 11.5691 27.22 11.5737 27.2212 11.5761C27.2218 11.5773 27.2222 11.5779 27.2222 11.578C27.2222 11.578 27.2222 11.5779 27.2221 11.5777C27.222 11.5776 27.2219 11.5773 27.2218 11.5772C27.2217 11.5769 27.2215 11.5766 28.3307 11.0003C29.44 10.4241 29.4398 10.4237 29.4395 10.4232C29.4394 10.423 29.4392 10.4225 29.439 10.4221C29.4385 10.4213 29.438 10.4204 29.4375 10.4193C29.4363 10.4171 29.4349 10.4143 29.4332 10.411C29.4297 10.4044 29.425 10.3956 29.4191 10.3846C29.4074 10.3626 29.3909 10.332 29.3696 10.2933C29.327 10.2159 29.2654 10.1061 29.185 9.96857C29.0244 9.69367 28.7882 9.3069 28.4786 8.84551C27.8609 7.92498 26.9431 6.69535 25.7413 5.46148C23.3572 3.01374 19.7207 0.416992 14.9974 0.416992V2.91699ZM28.3307 11.0003C27.2215 10.4241 27.2217 10.4237 27.2218 10.4234C27.2219 10.4234 27.222 10.4231 27.2221 10.423C27.2222 10.4227 27.2222 10.4226 27.2222 10.4227C27.2222 10.4228 27.2218 10.4234 27.2212 10.4246C27.22 10.4269 27.2176 10.4315 27.214 10.4382C27.2069 10.4515 27.1951 10.4733 27.1788 10.5029C27.1462 10.5622 27.0954 10.653 27.0266 10.7707C26.889 11.0062 26.6801 11.3486 26.4026 11.7622C25.846 12.5916 25.0214 13.6953 23.9504 14.7948C21.7892 17.0137 18.7589 19.0837 14.9974 19.0837V21.5837C19.7207 21.5837 23.3572 18.9869 25.7413 16.5392C26.9431 15.3053 27.8609 14.0757 28.4786 13.1551C28.7882 12.6937 29.0244 12.307 29.185 12.0321C29.2654 11.8945 29.327 11.7848 29.3696 11.7074C29.3909 11.6687 29.4074 11.638 29.4191 11.616C29.425 11.605 29.4297 11.5962 29.4332 11.5896C29.4349 11.5863 29.4363 11.5836 29.4375 11.5814C29.438 11.5803 29.4385 11.5793 29.439 11.5785C29.4392 11.5781 29.4394 11.5776 29.4395 11.5774C29.4398 11.577 29.44 11.5766 28.3307 11.0003ZM14.9974 19.0837C11.2359 19.0837 8.20563 17.0137 6.04435 14.7948C4.97344 13.6953 4.14877 12.5916 3.5922 11.7622C3.31467 11.3486 3.10582 11.0062 2.96818 10.7707C2.89941 10.653 2.84857 10.5622 2.81595 10.5029C2.79965 10.4733 2.78792 10.4515 2.7808 10.4382C2.77724 10.4315 2.77483 10.4269 2.77358 10.4246C2.77296 10.4234 2.77262 10.4228 2.77258 10.4227C2.77256 10.4226 2.77261 10.4227 2.77273 10.423C2.77279 10.4231 2.77294 10.4234 2.77297 10.4234C2.77314 10.4237 2.77332 10.4241 1.66406 11.0003C0.554806 11.5766 0.555026 11.577 0.555265 11.5774C0.555369 11.5776 0.555628 11.5781 0.555837 11.5785C0.556256 11.5793 0.55675 11.5803 0.557319 11.5814C0.558457 11.5836 0.559896 11.5863 0.561634 11.5896C0.565111 11.5962 0.569788 11.605 0.57566 11.616C0.587403 11.638 0.603933 11.6687 0.625215 11.7074C0.667769 11.7848 0.729376 11.8945 0.809753 12.0321C0.970413 12.307 1.20664 12.6937 1.51623 13.1551C2.1339 14.0757 3.05165 15.3053 4.25347 16.5392C6.63764 18.9869 10.2741 21.5837 14.9974 21.5837V19.0837ZM17.7474 11.0003C17.7474 12.5191 16.5162 13.7503 14.9974 13.7503V16.2503C17.8969 16.2503 20.2474 13.8998 20.2474 11.0003H17.7474ZM14.9974 13.7503C13.4786 13.7503 12.2474 12.5191 12.2474 11.0003H9.7474C9.7474 13.8998 12.0979 16.2503 14.9974 16.2503V13.7503ZM12.2474 11.0003C12.2474 9.48154 13.4786 8.25033 14.9974 8.25033V5.75033C12.0979 5.75033 9.7474 8.10083 9.7474 11.0003H12.2474ZM14.9974 8.25033C16.5162 8.25033 17.7474 9.48154 17.7474 11.0003H20.2474C20.2474 8.10083 17.8969 5.75033 14.9974 5.75033V8.25033Z" fill="#87B1CB"/>
</svg>
