<svg width="10" height="10" viewBox="0 0 10 10" fill="none" xmlns="http://www.w3.org/2000/svg">
<path d="M4.5 2.505C4.5 2.78114 4.72386 3.005 5 3.005C5.27614 3.005 5.5 2.78114 5.5 2.505H4.5ZM5.5 2.5C5.5 2.22386 5.27614 2 5 2C4.72386 2 4.5 2.22386 4.5 2.5H5.5ZM4.5 7.5C4.5 7.77614 4.72386 8 5 8C5.27614 8 5.5 7.77614 5.5 7.5H4.5ZM5.5 4C5.5 3.72386 5.27614 3.5 5 3.5C4.72386 3.5 4.5 3.72386 4.5 4H5.5ZM5.5 2.505V2.5H4.5V2.505H5.5ZM5.5 7.5L5.5 4H4.5L4.5 7.5H5.5ZM9 5C9 7.20914 7.20914 9 5 9V10C7.76142 10 10 7.76142 10 5H9ZM5 9C2.79086 9 1 7.20914 1 5H0C0 7.76142 2.23858 10 5 10V9ZM1 5C1 2.79086 2.79086 1 5 1V0C2.23858 0 0 2.23858 0 5H1ZM5 1C7.20914 1 9 2.79086 9 5H10C10 2.23858 7.76142 0 5 0V1Z" fill="#87B1CB"/>
</svg>
