<svg width="22" height="23" viewBox="0 0 22 23" fill="none" xmlns="http://www.w3.org/2000/svg">
<path d="M9.91406 9.66667V8.41667H7.41406V9.66667H9.91406ZM7.41406 16.6667V17.9167H9.91406V16.6667H7.41406ZM14.5807 9.66667V8.41667H12.0807V9.66667H14.5807ZM12.0807 16.6667V17.9167H14.5807V16.6667H12.0807ZM19.2474 5V3.75H16.7474V5H19.2474ZM5.2474 5V3.75H2.7474V5H5.2474ZM1.66406 3.75H0.414062V6.25H1.66406V3.75ZM20.3307 6.25H21.5807V3.75H20.3307V6.25ZM13.2474 5V6.25H15.7474V5H13.2474ZM6.2474 5V6.25H8.7474V5H6.2474ZM7.41406 9.66667V16.6667H9.91406V9.66667H7.41406ZM12.0807 9.66667V16.6667H14.5807V9.66667H12.0807ZM16.7474 5V19H19.2474V5H16.7474ZM15.6641 20.0833H6.33073V22.5833H15.6641V20.0833ZM5.2474 19V5H2.7474V19H5.2474ZM6.33073 20.0833C5.73242 20.0833 5.2474 19.5983 5.2474 19H2.7474C2.7474 20.979 4.35171 22.5833 6.33073 22.5833V20.0833ZM16.7474 19C16.7474 19.5983 16.2624 20.0833 15.6641 20.0833V22.5833C17.6431 22.5833 19.2474 20.979 19.2474 19H16.7474ZM1.66406 6.25H20.3307V3.75H1.66406V6.25ZM15.7474 5V3.83333H13.2474V5H15.7474ZM12.1641 0.25H9.83073V2.75H12.1641V0.25ZM6.2474 3.83333V5H8.7474V3.83333H6.2474ZM9.83073 0.25C7.85171 0.25 6.2474 1.85431 6.2474 3.83333H8.7474C8.7474 3.23502 9.23242 2.75 9.83073 2.75V0.25ZM15.7474 3.83333C15.7474 1.85431 14.1431 0.25 12.1641 0.25V2.75C12.7624 2.75 13.2474 3.23502 13.2474 3.83333H15.7474Z" fill="#063F5F"/>
</svg>
