<svg width="24" height="23" viewBox="0 0 24 23" fill="none" xmlns="http://www.w3.org/2000/svg">
<path d="M17.8333 8.66675H16.5833V9.91675H17.8333V8.66675ZM19.5408 16.3347L18.4588 16.9606L19.7106 19.1247L20.7926 18.4988L19.5408 16.3347ZM7.22622 10.0839L8.41475 10.471L9.18911 8.094L8.00058 7.70682L7.22622 10.0839ZM3.20743 18.4988L4.28943 19.1247L5.54125 16.9606L4.45924 16.3347L3.20743 18.4988ZM12 11.0001L12.8839 10.1162L12 9.23232L11.1161 10.1162L12 11.0001ZM10.75 21.5001V22.7501H13.25V21.5001H10.75ZM14.6161 15.384L15.5 16.2678L17.2678 14.5001L16.3839 13.6162L14.6161 15.384ZM7.61612 13.6162L6.73223 14.5001L8.5 16.2678L9.38388 15.384L7.61612 13.6162ZM7.41667 7.50008C7.41667 4.96878 9.46869 2.91675 12 2.91675V0.416748C8.08798 0.416748 4.91667 3.58806 4.91667 7.50008H7.41667ZM12 2.91675C14.5313 2.91675 16.5833 4.96878 16.5833 7.50008H19.0833C19.0833 3.58806 15.912 0.416748 12 0.416748V2.91675ZM16.5833 7.50008V8.66675H19.0833V7.50008H16.5833ZM4.91667 7.50008V8.66675H7.41667V7.50008H4.91667ZM17.8333 9.91675C19.7203 9.91675 21.25 11.4464 21.25 13.3334H23.75C23.75 10.0657 21.101 7.41675 17.8333 7.41675V9.91675ZM21.25 13.3334C21.25 14.6087 20.5545 15.7483 19.5408 16.3347L20.7926 18.4988C22.5686 17.4714 23.75 15.5128 23.75 13.3334H21.25ZM2.75 13.3334C2.75 11.4464 4.27969 9.91675 6.16667 9.91675V7.41675C2.89898 7.41675 0.25 10.0657 0.25 13.3334H2.75ZM6.16667 9.91675C6.53857 9.91675 6.89423 9.97571 7.22622 10.0839L8.00058 7.70682C7.42161 7.51821 6.80476 7.41675 6.16667 7.41675V9.91675ZM4.45924 16.3347C3.44549 15.7483 2.75 14.6087 2.75 13.3334H0.25C0.25 15.5128 1.43143 17.4714 3.20743 18.4988L4.45924 16.3347ZM10.75 11.0001V21.5001H13.25V11.0001H10.75ZM16.3839 13.6162L12.8839 10.1162L11.1161 11.884L14.6161 15.384L16.3839 13.6162ZM11.1161 10.1162L7.61612 13.6162L9.38388 15.384L12.8839 11.884L11.1161 10.1162Z" fill="#063F5F"/>
</svg>
